<?xml version="1.0" standalone="no"?>
<!DOCTYPE svg PUBLIC "-//W3C//DTD SVG 20010904//EN"
 "http://www.w3.org/TR/2001/REC-SVG-20010904/DTD/svg10.dtd">
<svg version="1.0"
  xmlns="http://www.w3.org/2000/svg" width="700.000000pt" height="700.000000pt" viewBox="0 0 700.000000 700.000000" preserveAspectRatio="xMidYMid meet">
  <g transform="translate(0.000000,700.000000) scale(0.100000,-0.100000)" fill="#000000" stroke="none">
    <path d="M3280 6994 c-19 -2 -84 -9 -145 -14 -410 -40 -846 -169 -1225 -362
-343 -176 -628 -387 -908 -672 -561 -572 -883 -1252 -984 -2081 -7 -56 -12
-217 -12 -365 0 -268 7 -362 45 -588 96 -575 348 -1138 716 -1597 115 -144
339 -373 483 -494 537 -451 1157 -715 1885 -803 135 -16 590 -16 735 1 512 58
1002 222 1426 478 635 383 1136 957 1422 1628 255 599 339 1259 242 1898 -93
610 -340 1176 -726 1662 -116 147 -431 459 -574 569 -523 404 -1101 642 -1750
722 -117 15 -553 27 -630 18z m1595 -1625 c33 -5 103 -31 155 -56 164 -79 285
-222 342 -403 l23 -75 0 -1335 c0 -1473 4 -1380 -65 -1525 -67 -139 -166 -238
-305 -305 -145 -69 -52 -65 -1525 -65 l-1335 0 -75 23 c-114 36 -196 86 -282
172 -62 63 -85 96 -121 171 -25 52 -50 118 -56 147 -8 37 -11 465 -11 1375 -1
1282 0 1324 19 1399 56 216 217 389 431 461 62 21 86 22 525 27 751 8 2212 2
2280 -11z"/>
    <path d="M2189 4867 c-18 -12 -44 -38 -56 -56 -23 -34 -23 -38 -23 -347 l0
-314 370 0 370 0 0 370 0 370 -314 0 c-309 0 -313 0 -347 -23z"/>
    <path d="M3340 4520 l0 -370 786 0 785 0 -3 313 c-3 301 -4 313 -25 347 -12
20 -40 46 -61 58 l-40 22 -721 0 -721 0 0 -370z"/>
    <path d="M2110 2939 l0 -721 22 -40 c12 -21 38 -49 58 -61 34 -21 46 -22 348
-25 l312 -3 0 785 0 786 -370 0 -370 0 0 -721z"/>
    <path d="M3342 2878 l3 -783 699 -3 c483 -1 711 1 739 9 52 14 102 63 116 114
7 27 11 263 11 743 l0 702 -785 0 -785 0 2 -782z"/>
  </g>
</svg>
