<svg xmlns="http://www.w3.org/2000/svg" width="300" height="80"><path fill="#333" d="m51.367 30.649 21.177 12.165 21.178-12.165V17.131L72.544 29.207 51.367 17.131v13.518Zm42.355 27.035L72.544 45.518 51.367 57.684v13.517l21.177-12.075 21.178 12.075V57.684Zm-69.21 12.977c10.994 0 19.375-6.038 21.988-13.969l-11.264-2.973c-1.803 4.055-5.587 6.939-10.634 6.939-5.948 0-11.175-4.506-11.625-10.544h34.515c.18-1.442.27-3.064.27-5.047 0-14.869-9.372-24.872-23.43-24.872C10.544 20.195 0 30.468 0 45.518c0 15.049 10.454 25.143 24.512 25.143Zm10.724-29.469H12.887c.721-6.849 5.227-11.535 11.445-11.535 6.308 0 10.814 4.776 10.904 11.535Zm82.908 29.469c6.488 0 12.256-3.425 14.599-8.381h.36v7.119h12.616V1h-12.886v27.756h-.271c-2.343-4.956-7.93-8.471-14.418-8.471-10.814 0-20.817 9.552-20.817 25.233 0 15.59 10.003 25.143 20.817 25.143Zm-7.66-25.143c0-7.93 4.866-14.149 11.535-14.149 6.668 0 11.535 6.038 11.535 14.149 0 8.02-4.867 14.148-11.535 14.148-6.669 0-11.535-6.128-11.535-14.148Zm62.631 25.143c6.488 0 12.256-3.425 14.599-8.381h.36v7.119h12.617V21.637h-12.887v7.119h-.27c-2.343-4.956-7.931-8.471-14.419-8.471-10.814 0-20.817 9.552-20.817 25.233 0 15.59 10.003 25.143 20.817 25.143Zm-7.66-25.143c0-7.93 4.866-14.149 11.535-14.149 6.669 0 11.535 6.038 11.535 14.149 0 8.02-4.866 14.148-11.535 14.148-6.669 0-11.535-6.128-11.535-14.148ZM236.017 32V21.637h-11.355V4.605l-12.977 7.299v9.733h-6.668V32h6.668v21.088c0 11.895 7.84 17.302 18.024 17.302 2.343 0 4.505-.18 6.308-.631V58.855c-1.442.451-3.154.631-4.596.631-3.695 0-6.759-2.073-6.759-7.48V32h11.355Zm5.767-8.561v45.96h12.977v-45.96h-12.977Zm-1.532-13.337c0 4.506 3.515 8.02 7.931 8.02 4.505 0 8.02-3.514 8.02-8.02s-3.515-8.021-8.02-8.021c-4.416 0-7.931 3.515-7.931 8.021Zm39.652 60.559c11.805 0 19.555-6.309 19.555-15.23 0-8.291-5.767-12.617-14.869-14.419l-6.398-1.262c-4.146-.811-5.588-2.523-5.588-5.136 0-3.245 2.794-5.317 7.21-5.317 4.506 0 8.291 2.884 9.011 8.291L300 36.867c-.901-10.274-9.192-16.582-20.186-16.582-11.806 0-19.015 6.579-19.015 15.41 0 8.021 5.407 13.067 14.148 14.689l6.309 1.172c4.505.811 6.037 2.613 6.037 5.136 0 3.155-2.523 5.137-7.209 5.137-4.956 0-8.561-2.884-9.012-7.93l-11.625.901c.901 9.552 8.832 15.861 20.457 15.861Z"/></svg>