<svg xmlns="http://www.w3.org/2000/svg" width="291" height="44" fill="none"><g fill="#bbb" clip-path="url(#a)"><path d="M41.551 34.207 30.115 43.75l7.665-9.542h3.771Zm-1.86-21.823s1.52-1.089 3.04.327c1.52 1.418.218 3.271.218 3.271L22.673 34.208 12.415 43.43l8.102-9.22 19.175-21.825Zm1.175 9.437s1.062-.76 2.123.23c1.06.99.152 2.284.152 2.284L32.15 34.208l-10.207 9.168 8.05-9.168 10.873-12.387ZM39.694.408s1.519-1.089 3.039.327c1.52 1.417.218 3.271.218 3.271L10.409 34.208.778 43.146l8.865-9.737 30.05-33Zm1.165 29.966s1.062-.76 2.123.228c1.062.99.152 2.285.152 2.285l-1.583 1.32-3.771.001 3.079-3.834ZM27.835.526s1.519-1.09 3.039.327c1.52 1.417.218 3.27.218 3.27L9.645 23.437.034 32.095l9.61-10.914L27.834.526ZM19.324.28s1.062-.76 2.123.23c1.062.99.152 2.284.152 2.284L9.644 13.554 0 22.235l9.644-10.957 9.681-11ZM10.77.286s1.063-.76 2.124.23c1.062.99.15 2.284.15 2.284L9.645 5.638.028 13.663 9.644 1.691 10.772.285Zm272.132 14.69c2.045-1.95 4.66-2.996 8.036-2.996v5.897c-3.518.19-6.087 1.236-8.036 3.424v13.743h-6.229V12.36h6.229v2.616Zm-23.159 14.98c3.424 0 5.802-2.568 5.802-6.23 0-3.709-2.378-6.277-5.802-6.277-3.472 0-5.85 2.568-5.85 6.277 0 3.662 2.378 6.23 5.85 6.23Zm0-18.166c7.086 0 12.031 4.898 12.031 11.936 0 6.991-4.945 11.888-12.031 11.888-7.133 0-12.079-4.897-12.079-11.888 0-7.038 4.946-11.936 12.079-11.936Zm-27.914 18.165c3.424 0 5.801-2.567 5.801-6.229 0-3.709-2.377-6.277-5.801-6.277-3.472 0-5.85 2.568-5.85 6.277 0 3.662 2.378 6.23 5.85 6.23Zm0-18.165c7.085 0 12.031 4.898 12.031 11.936 0 6.991-4.946 11.888-12.031 11.888-7.134 0-12.079-4.897-12.079-11.888 0-7.038 4.945-11.936 12.079-11.936Zm-23.35 23.16h6.229V1.184h-6.229V34.95Zm-3.424-22.685v5.231h-8.798V34.95h-6.229V17.496h-6.277v-5.23h6.277v-1.95c0-2.682.844-4.895 2.286-6.527 1.806-2.042 4.549-3.174 7.748-3.174 1.617 0 3.139.237 4.945.76l-.855 5.28c-1.142-.382-2.521-.667-3.329-.667-2.806 0-4.566 1.664-4.566 4.327v1.95h8.798Zm-34.382-.475c6.04 0 10.035 4.28 10.035 10.937v12.317h-6.23V23.107c0-3.709-1.854-5.658-5.136-5.658-1.712 0-3.614.998-5.231 2.901v14.694h-6.23V1.28h6.23v12.792c1.854-1.474 3.994-2.282 6.562-2.282Zm-29.007 18.165c2.567 0 4.469-1.474 4.945-3.66h6.372c-.713 5.468-5.469 9.32-11.317 9.32-6.801 0-12.079-5.137-12.079-11.889 0-6.753 5.278-11.936 12.079-11.936 5.848 0 10.604 3.9 11.317 9.368h-6.372c-.476-2.187-2.378-3.709-4.945-3.709-3.568 0-5.85 2.805-5.85 6.277 0 3.471 2.282 6.23 5.85 6.23Zm-28.771 0c2.045 0 4.09-.57 5.564-2.662v-7.18c-1.474-2.094-3.519-2.664-5.564-2.664-3.566 0-6.04 2.853-6.04 6.277 0 3.376 2.474 6.23 6.04 6.23Zm5.564-17.595h6.229v22.684h-6.229V33.76c-1.76 1.141-3.994 1.854-6.515 1.854-6.277 0-11.318-5.326-11.318-11.888 0-6.61 5.041-11.936 11.318-11.936 2.521 0 4.755.713 6.515 1.854V12.36Zm-33.098 4.708c-3.044 0-4.66 1.855-5.231 4.233h10.319c-.332-2.9-2.188-4.233-5.088-4.233Zm-.048-5.278c7.799 0 12.507 5.896 11.318 13.743H79.987c.476 2.615 2.187 4.612 5.755 4.612 1.664 0 2.806-.285 3.613-1.284h6.896c-1.522 4.281-5.564 6.753-10.557 6.753-7.276 0-12.08-5.136-12.08-11.888 0-6.753 4.757-11.936 11.699-11.936ZM69.478 28.957l.856 5.66c-2.092.807-3.804.997-5.47.997-6.086 0-9.51-3.804-9.51-9.605v-8.418h-4.85v-5.23h4.85V4.133h6.23v8.226h8.322v5.231h-8.322v8.418c0 2.663 1.665 3.851 3.995 3.851 1.426 0 2.758-.427 3.899-.903Z"/></g><defs><clipPath id="a"><path fill="#bbb" d="M0 0h291v44H0z"/></clipPath></defs></svg>