<svg xmlns="http://www.w3.org/2000/svg" xml:space="preserve" stroke-miterlimit="10" style="fill-rule:nonzero;clip-rule:evenodd;stroke-linecap:round;stroke-linejoin:round" viewBox="0 0 1215.52 346.805"><clipPath id="a"><path d="M0 0h1215.52v346.805H0z"/></clipPath><g fill-rule="evenodd" clip-path="url(#a)"><path fill="#778da8" d="M249.406 220.533c-19.01-3.067-37.509-10.306-74.634-29.204-26.517-13.499-35.353-17.581-48.381-22.352-18.645-6.828-33.19-10.329-51.194-12.325-4.229-.468-7.689-1.174-7.689-1.567 0-.394 5.443-12.929 12.095-27.857 13.278-29.8 19.333-43.539 31.13-70.646 12.696-29.173 17.52-36.612 28.697-44.249 9-6.149 17.31-8.2 45.541-11.244 12.885-1.388 17.888-1.442 18.84-.202.396.516 2.171 4.313 3.945 8.439a1979 1979 0 0 0 7.555 17.252 8787 8787 0 0 1 12.715 28.879c10.099 23.04 13.065 29.775 38.314 87.01 23.884 54.139 32.337 74.108 32.035 75.676-.138.712-1.425 1.425-3.221 1.784-4.229.844-41.23 1.334-45.748.606m-36.169-35.77c.252-.253-.081-1.856-.742-3.563-1.524-3.937-36.032-84.52-39.313-91.802-2.965-6.583-4.326-6.976-6.483-1.875-.829 1.96-3.96 9.47-6.958 16.69a8385 8385 0 0 1-11.744 28.091c-3.462 8.231-6.195 15.631-6.074 16.444.166 1.117 3.442 2.979 13.346 7.584 7.22 3.357 22.747 11.23 34.505 17.497 11.757 6.266 21.743 11.394 22.19 11.394s1.02-.207 1.273-.46"/><path fill="#327388" d="m441.618 346.682-2.813-.28v-19.038c0-14.169-.234-19.182-.915-19.603-.503-.311-8.858-.483-18.565-.382-31.817.33-43.71-2.794-56.06-14.724-12.127-11.715-18.219-29.972-18.221-54.607-.004-38.352 14.905-61.572 43.316-67.469 10.835-2.248 43.155-3.212 70.953-2.116l12.496.493v88.769c0 48.822-.253 88.773-.563 88.78-14.805.317-27.452.393-29.628.177m-2.432-72.386c.225-.928.316-18.227.202-38.442l-.208-36.754-19.128.03c-18.265.028-19.327.109-23.567 1.789-12.091 4.789-18.086 17.165-18.015 37.185.063 17.87 5.12 29.666 14.845 34.627 5.416 2.763 8.19 3.081 27.661 3.171l17.8.082zM1131.4 309.43c-11.14-2.128-21.76-6.896-28.51-12.806-5.15-4.51-11.83-13.494-14.65-19.71-7.42-16.373-9.38-45.8-4.33-65.063 3.49-13.286 12.04-26.915 21.22-33.816 17.45-13.121 45.93-16.592 69.62-8.488 10.37 3.545 18.48 9.039 25.03 16.954 5.02 6.068 8.16 12.33 12.51 24.975l3.23 9.376-.02 17.627-.02 17.628-2.74 7.94c-5.54 16.003-10.13 23.841-18.44 31.507-5.88 5.428-15.4 10.36-24.53 12.72-7.87 2.034-30.25 2.708-38.38 1.156zm29.37-30.437c12.8-4.22 20.16-17.036 21.1-36.763 1.01-21.012-5.67-36.909-17.78-42.344-9.16-4.109-22.47-4.284-31.27-.41-8.09 3.564-14.65 13.08-17.15 24.866-1.71 8.06-1.08 27.09 1.09 33.096 3.98 11.042 8.46 16.638 16.39 20.521 6.31 3.084 19.86 3.592 27.62 1.034M0 306.063c0-.784 1.381-4.413 3.07-8.064 2.97-6.422 18.82-41.272 24.681-54.269 8.205-18.192 10.902-24.122 13.302-29.254a7144 7144 0 0 0 7.329-15.752c10.26-22.116 13.106-27.639 14.365-27.882.7-.136 5.855.011 11.456.323 29.008 1.622 50.259 9.257 97.046 34.864 43.687 23.912 71.261 31.779 103.516 29.535 6.68-.464 16.028-1.516 20.772-2.336s9.329-1.493 10.188-1.495c1.33-.003 3.083 3.436 11.752 23.061 5.605 12.686 12.955 29.223 16.335 36.748 3.38 7.526 5.95 14.192 5.712 14.815-.379.987-5.094 1.13-37.025 1.12-20.125-.006-36.986-.263-37.469-.57-.483-.308-5.141-10.473-10.351-22.591-8.327-19.366-12.701-29.017-13.599-30.007-.149-.164-3.605-.73-7.68-1.258-9.736-1.261-20.356-3.99-32.158-8.265-13.589-4.923-23.092-9.333-47.473-22.033-25.423-13.243-34.547-17.535-35.419-16.663-.566.566-21.63 49.886-36.74 86.021-2.932 7.014-5.838 13.342-6.457 14.064-1.044 1.218-3.818 1.313-38.14 1.313-35.867 0-37.013-.044-37.013-1.425m541.568.655c-16.367-1.037-27.372-5.408-36.34-14.431-8.922-8.978-12.596-17.643-13.908-32.805-.855-9.891-1.017-88.446-.185-89.747.62-.967 28.849-2.288 31.426-1.47 1.499.476 1.53 1.163 2.062 45.663.512 42.766.62 45.359 2.029 48.554 2.007 4.552 6.075 8.563 10.707 10.556 4.648 1.999 17.241 3.091 32.067 2.781l10.021-.21.375-53.256.376-53.257 14.251-.544c7.839-.299 15.349-.368 16.69-.153l2.438.39v68.894c0 62.131-.117 68.939-1.187 69.35-1.623.623-60.124.362-70.822-.315m125.979.049c-12.306-.465-12.462-.492-18.175-3.205-11.779-5.594-18.861-16.143-20.855-31.069-3.034-22.705 4.356-41.53 19.084-48.614 8.884-4.273 14.727-4.9 45.771-4.913 14.901-.006 27.576-.318 28.167-.692.879-.556.458-1.746-2.318-6.551-2.824-4.888-4.019-6.214-7.124-7.909-7.92-4.322-9.909-4.546-43.579-4.902-30.943-.327-30.945-.327-31.343-1.945-.219-.89-.302-7.525-.184-14.745l.214-13.126 10.876-.592c12.742-.694 49.033-.046 59.165 1.056 7.706.838 17.951 3.542 22.811 6.022 11.27 5.749 19.868 16.427 23.465 29.143 1.261 4.457 1.402 9.029 1.637 53.19.208 39.007.07 48.434-.716 48.932-1.101.699-67.9.637-86.896-.08m53.668-44.285v-13.126h-25.503c-24.3 0-25.626.072-28.102 1.527-5.055 2.969-7.421 9.59-5.645 15.798 1.24 4.338 3.999 7.499 7.415 8.497 1.281.375 13.468.625 27.082.556l24.753-.125zm51.944 44.489c-1.233-.322-1.313-3.235-1.313-47.835v-47.492l1.883-6.495c2.809-9.694 5.828-15.051 11.911-21.135 6.764-6.765 13.501-10.273 24.388-12.695 12.079-2.689 26.85-3.606 47.892-2.975l18.19.545v58.164l-1.688.452c-2.211.593-28.592.608-30.13.017-.962-.369-1.187-1.754-1.191-7.313 0-3.772-.224-10.194-.494-14.271l-.491-7.412-7.569.516c-12.814.874-19.226 3.227-24.003 8.808-4.95 5.782-4.943 5.713-4.943 54.243 0 32.907-.221 43.815-.9 44.495-.645.644-5.057.875-15.565.813-8.065-.048-15.255-.242-15.977-.43m118.102-.383c-.686-.687-.9-17.03-.9-68.982 0-66.543.033-68.1 1.451-68.859 1.549-.829 29.054-1.113 31.117-.321 1.07.411 1.187 7.215 1.187 69.303 0 62.089-.117 68.893-1.187 69.304-2.356.904-30.717.506-31.668-.445m56.257 0c-1.257-1.257-1.311-136.775-.054-137.551.465-.287 9.663-.669 20.44-.848 21.834-.362 51.116.781 59.746 2.333 19.55 3.517 33.31 15.686 38.4 33.968 1.59 5.684 1.65 7.292 1.91 53.36.2 35.809.05 47.762-.62 48.569-1.25 1.498-30.85 1.581-32.09.089-.56-.673-.89-14.967-1.06-45.568-.19-34.438-.47-45.271-1.23-47.589-1.53-4.607-7.79-10.443-12.83-11.944-5.98-1.784-17.6-2.773-29.631-2.525l-10.501.218-.193 53.186c-.137 37.771-.435 53.478-1.029 54.194-1.139 1.372-29.894 1.472-31.257.108zm-56.821-148.575c-.202-.527-.276-8.037-.164-16.69l.203-15.733h33.005l.201 16.69.202 16.69h-16.54c-12.718 0-16.625-.222-16.907-.957"/></g></svg>