<svg xmlns="http://www.w3.org/2000/svg" width="156.884" height="19.583" viewBox="0 0 41.509 5.181"><path fill="#333" d="M3.614 3.787q0 .623-.427.975-.427.351-1.182.351H0V.466h1.81q.75 0 1.136.303.39.3.39.865 0 .396-.228.668-.228.269-.7.369.59.062.896.351.31.29.31.765zm-1.023-.086q0-.303-.182-.465-.183-.166-.531-.166h-.861v1.289h.885q.69 0 .69-.658zm-.279-1.93q0-.55-.575-.55h-.72v1.098h.727q.568 0 .568-.548zm5.366 1.475q0 .927-.469 1.433-.468.503-1.347.503-.847 0-1.316-.503-.468-.506-.468-1.433 0-.923.465-1.426.465-.503 1.34-.503 1.795 0 1.795 1.929zm-1.013 0q0-.662-.176-.961-.175-.303-.592-.303-.427 0-.617.303-.186.303-.186.96 0 .666.19.972.192.304.568.304.427 0 .62-.3.193-.303.193-.975zm5.245 0q0 .927-.468 1.433-.469.503-1.347.503-.848 0-1.316-.503-.469-.506-.469-1.433 0-.923.465-1.426.465-.503 1.34-.503 1.795 0 1.795 1.929zm-1.013 0q0-.662-.175-.961-.176-.303-.593-.303-.427 0-.617.303-.186.303-.186.96 0 .666.19.972.193.304.568.304.428 0 .62-.3.193-.303.193-.975zm4.305 1.867-.996-1.688-.416.29v1.398h-.968V.001h.968v2.928l1.33-1.543h1.04l-1.31 1.453 1.41 2.274zm3.991-.654h1.216v.654h-3.545v-.654h1.361V2.04h-.999v-.654h1.967zM18.225.714V.001h.968v.713zm4.622 4.468q-.868 0-1.34-.51-.472-.513-.472-1.44 0-.62.22-1.047.224-.427.634-.648.41-.22.972-.22.816 0 1.267.544.452.544.452 1.547v.027h-2.529q0 .507.224.803.227.296.62.296.255 0 .451-.106.197-.11.266-.338l.913.08q-.19.485-.63.75-.442.262-1.048.262zm0-3.256q-.355 0-.565.242-.21.237-.224.661h1.585q-.024-.413-.238-.658-.21-.245-.558-.245zm6.161 1.861q0 .623-.427.975-.427.351-1.181.351h-2.005V.466h1.808q.751 0 1.137.303.39.3.39.865 0 .396-.228.668-.227.269-.7.369.59.062.896.351.31.29.31.765zm-1.023-.086q0-.303-.182-.465-.183-.166-.53-.166h-.862v1.289h.885q.69 0 .69-.658zm-.279-1.93q0-.55-.575-.55h-.72v1.098h.727q.568 0 .568-.548zm2.962 3.411q-.542 0-.845-.293-.303-.296-.303-.83 0-.579.358-.879.362-.303 1.079-.313l.768-.014v-.19q0-.354-.12-.537-.121-.182-.39-.182-.251 0-.372.127-.117.124-.145.4l-1.009-.048q.186-1.106 1.567-1.106.696 0 1.065.34.372.342.372 1.003v1.35q0 .314.069.435.072.117.238.117.11 0 .213-.02v.523q-.086.02-.155.038-.069.017-.138.027-.068.01-.148.018-.075.007-.179.007-.365 0-.54-.18-.173-.179-.207-.527h-.021q-.217.39-.496.562-.276.172-.662.172zm1.057-1.795-.462.007q-.31.007-.45.066-.139.055-.211.182-.072.124-.072.341 0 .524.413.524.334 0 .558-.262.224-.265.224-.668zm5.466.637q0 .541-.445.851-.44.307-1.223.307-.768 0-1.178-.241-.406-.245-.54-.758l.85-.128q.073.266.248.376.18.11.62.11.407 0 .593-.103t.186-.324q0-.18-.152-.282-.148-.107-.506-.18-.82-.162-1.106-.3-.286-.14-.438-.361-.148-.224-.148-.548 0-.534.41-.83.414-.3 1.168-.3.665 0 1.068.259.407.258.507.747l-.858.09q-.042-.228-.203-.338-.162-.114-.514-.114-.344 0-.517.09-.172.086-.172.293 0 .162.131.258.134.093.448.155.437.09.775.186.341.093.544.224.207.131.328.338.124.203.124.524zm2.585 1.158q-.868 0-1.34-.51-.472-.513-.472-1.44 0-.62.22-1.047.225-.427.635-.648.41-.22.971-.22.817 0 1.268.544.451.544.451 1.547v.027h-2.528q0 .507.223.803.228.296.62.296.256 0 .452-.106.196-.11.265-.338l.913.08q-.19.485-.63.75-.441.262-1.048.262zm0-3.256q-.354 0-.565.242-.21.237-.224.661h1.585q-.024-.413-.238-.658-.21-.245-.558-.245z"/></svg>