<svg xmlns="http://www.w3.org/2000/svg" width="40" height="40" fill="none"><rect width="39.977" height="40.173" x=".023" fill="url(#a)" rx="9.932"/><path fill="url(#b)" d="m0 49.534 8.412-13.428 4.95 2.09-3.585 6.736a8.81 8.81 0 0 1-8.091 4.662z"/><path fill="url(#c)" d="M10.724 10.797c-2.072 3.606-1.323 7.938 1.672 9.676L19.9 7.414c-2.996-1.738-7.104-.223-9.176 3.383"/><path fill="url(#d)" d="M17.279 17.661c.581-1.735-.178-3.558-1.695-4.071l-2.106 6.283c1.518.514 3.22-.477 3.8-2.212"/><path fill="url(#e)" fill-rule="evenodd" d="M17.26 20.467c-4.463-2.622-6.315-7.8-4.136-11.592s7.568-4.77 12.058-2.198l.003-.006c8.167 4.739 10.966 15.233 6.25 23.44S16.277 41.132 8.11 36.393z" clip-rule="evenodd"/><path fill="url(#f)" d="M21.397 36.172c3.167-5.512 1.287-12.56-4.198-15.743L5.731 40.39c5.485 3.183 12.499 1.294 15.666-4.218"/><ellipse cx="17.519" cy="11.193" fill="#121212" rx="1.529" ry="1.536"/><defs><linearGradient id="a" x1="20.012" x2="20.012" y1="72.5" y2="0" gradientUnits="userSpaceOnUse"><stop/><stop offset="1" stop-color="#666"/></linearGradient><linearGradient id="b" x1="10.331" x2="-1.006" y1="36.666" y2="50.996" gradientUnits="userSpaceOnUse"><stop stop-color="#08070A"/><stop offset="1" stop-color="#fff"/></linearGradient><linearGradient id="c" x1="10" x2="23.032" y1="24" y2="6.651" gradientUnits="userSpaceOnUse"><stop stop-color="#F8F8F8"/><stop offset="1" stop-color="#08070A"/></linearGradient><linearGradient id="d" x1="14.852" x2="16.011" y1="20.338" y2="16.003" gradientUnits="userSpaceOnUse"><stop stop-color="gray"/><stop offset="1" stop-color="#08070A"/></linearGradient><linearGradient id="e" x1="21.5" x2="46.569" y1="6.505" y2="50.822" gradientUnits="userSpaceOnUse"><stop stop-color="#F8F8F8"/><stop offset="1" stop-color="#08070A"/></linearGradient><linearGradient id="f" x1="6" x2="19.448" y1="41.001" y2="15.473" gradientUnits="userSpaceOnUse"><stop stop-color="#F8F8F8"/><stop offset="1" stop-color="#08070A"/></linearGradient></defs></svg>