<svg xmlns="http://www.w3.org/2000/svg" width="408" height="100" fill="none"><g fill-rule="evenodd" clip-path="url(#a)" clip-rule="evenodd"><path fill="#108F64" d="M92.108 55.91c-.705 0-1.332.157-1.8.471-3.435 5.734-6.498 8.247-11.665 8.247-4.462 0-7.515-1.806-9.238-5.262 5.323-9.975 9.003-18.143 9.003-29.375 0-19.4-10.96-29.217-30.455-29.217C28.46.774 17.5 10.592 17.5 29.991c0 11.23 3.68 19.399 9.003 29.375-1.722 3.456-4.775 5.262-9.238 5.262-5.167 0-8.22-2.513-11.664-8.247-.469-.314-1.096-.47-1.801-.47-2.269 0-3.68 1.729-3.68 5.42 0 8.952 7.908 16.336 19.34 16.336 2.974 0 6.105-.471 9.55-1.73-4.54 11.31-9.55 13.667-16.283 12.017-1.723.865-2.269 2.671-2.269 4.084 0 3.77 3.913 7.382 11.978 7.382 11.586 0 20.667-7.304 24.19-22.854.392-.393.705-.709 1.333-.709.627 0 .94.315 1.332.709C52.813 92.118 61.884 99.42 73.48 99.42c8.064 0 11.978-3.613 11.978-7.383 0-1.413-.548-3.218-2.269-4.083-6.734 1.65-11.743-.708-16.283-12.016 3.434 1.256 6.576 1.729 9.551 1.729 11.43 0 19.339-7.383 19.339-16.337 0-3.691-1.41-5.42-3.68-5.42z"/><path fill="#333" d="M156.285 29.302h-26.183V42.76h23.557v9.638h-23.557v14.417h25.469v9.718h-36.928v-52.25c0-2.867 2.307-4.62 4.854-4.62h32.789v9.638zm24.591 6.372c10.505 0 17.59 5.894 17.59 16.568v24.293h-9.551v-5.177c-2.786 3.742-7.084 6.142-12.892 6.142-8.198 0-13.689-4.858-13.689-12.346 0-9.797 9.311-13.142 19.419-13.142a46.633 46.633 0 0 1 6.764.478v-.558c0-5.177-3.502-7.646-8.436-7.646-3.741 0-7.958 1.355-12.097 4.54l-4.616-6.77c4.298-4.063 10.903-6.373 17.508-6.373zm-2.227 33.77c5.889 0 9.471-4.46 9.869-10.593a77.846 77.846 0 0 0-5.969-.24c-5.173 0-9.472 1.514-9.472 5.815 0 2.948 2.15 5.018 5.571 5.018zm42.418 7.965c-6.286 0-12.495-2.07-16.632-6.052l4.299-6.85c4.218 3.425 8.675 4.698 11.858 4.698 3.341 0 6.207-1.354 6.207-3.903 0-3.187-4.299-4.062-8.595-5.496-6.367-2.15-11.54-4.937-11.54-11.629 0-8.045 6.924-12.505 16.077-12.505 5.652 0 11.142 1.833 14.962 4.62l-4.139 6.77c-3.66-2.229-7.242-3.343-10.345-3.343-3.581 0-5.81 1.513-5.81 3.583 0 2.708 3.341 3.664 7.005 4.858 6.525 2.152 13.688 4.46 13.688 12.506 0 8.364-8.038 12.743-17.031 12.743zm49.899-40.7h11.064l-16.315 40.86c-2.706 6.77-7.083 14.896-16.237 14.896-3.66 0-7.082-1.274-9.629-3.584l3.82-7.487c1.512 1.194 3.185 1.911 5.253 1.911 3.185 0 5.093-1.992 6.685-5.656l1.034-2.549-15.279-38.392h11.14l9.391 26.763zm75.851-17.046h11.619l-12.972 53.128c-.875 3.583-4.695 4.62-8.039 4.62-3.344 0-7.322-.876-8.197-4.62l-8.277-30.745-8.276 30.745c-.875 3.663-4.934 4.62-8.198 4.62-3.341 0-7.163-1.036-7.958-4.62l-12.812-53.127h12.017l9.471 44.364 10.586-38.073h10.585l10.744 38.313 9.711-44.604zm41.333 0c13.132 0 19.567 8.443 19.567 18.72 0 12.026-7.163 18.718-20.374 18.718h-9.63v19.434h-11.45v-52.25c0-2.628 2.069-4.62 4.694-4.62h17.19zm-1.388 27.959c5.889 0 9.232-2.709 9.232-9.319 0-5.656-3.341-9.08-9.311-9.08h-9.152v18.399z"/></g><defs><clipPath id="a"><path fill="#fff" d="M0 0h408v100H0z"/></clipPath></defs></svg>