<svg xmlns="http://www.w3.org/2000/svg" width="554" height="100" fill="none"><g clip-path="url(#a)"><path fill="#FF5100" d="M163.559 0a16.897 16.897 0 0 0-14.773 8.697l-.344.708-13.163 26.111-16.749 33.005 10.973 21.623.601 1.18a17.183 17.183 0 0 0 7.322 6.937 17.287 17.287 0 0 0 7.323-6.936l.601-1.181 32.875-64.87.794-1.568A16.876 16.876 0 0 0 163.58.086zM61.95 31.415 50.997 9.942l-.601-1.181a16.942 16.942 0 0 0-7.301-6.914 17.006 17.006 0 0 0-7.3 6.893l-.623 1.202L2.255 74.748l-.795 1.546a16.878 16.878 0 0 0 30.191 15.03l.365-.686 13.249-26.112 16.727-32.982z"/><path fill="url(#b)" d="M163.516 0a16.879 16.879 0 0 0-14.752 8.697l-.365.708-13.249 26.111-16.77 33.005 10.994 21.623.601 1.18a17.05 17.05 0 0 0 7.323 6.937 17.054 17.054 0 0 0 7.322-6.936l.622-1.181 32.983-64.87.773-1.568a16.884 16.884 0 0 0-7.427-21.579 16.874 16.874 0 0 0-8.012-2.041z"/><path fill="url(#c)" d="M16.878 100.021a16.875 16.875 0 0 0 14.752-8.589l.365-.708 13.27-26.112 16.749-33.004L51.04 9.878l-.601-1.181a17.178 17.178 0 0 0-7.344-6.936 17.178 17.178 0 0 0-7.322 6.936l-.601 1.18-33.026 64.87-.794 1.568a16.878 16.878 0 0 0 15.439 23.62z"/><path fill="#FF8C44" d="M61.95 31.415 50.997 9.942l-.601-1.181a17.05 17.05 0 0 0-7.322-6.936 17.842 17.842 0 0 1 3.2-1.202 17.522 17.522 0 0 1 4.295-.537h22.933a17.007 17.007 0 0 1 14.73 8.59l.601 1.18 29.654 58.75 10.93 21.474.601 1.18a17.185 17.185 0 0 0 7.408 7 17.281 17.281 0 0 1-7.451 1.74h-23.062a16.986 16.986 0 0 1-14.708-8.59l-.623-1.18z"/><path fill="#333" d="M208.287 51.149a1.636 1.636 0 0 1 .468-1.336 1.63 1.63 0 0 1 1.336-.468h1.288a1.607 1.607 0 0 1 1.649 1.101c.074.226.098.466.069.703v4.166a12.4 12.4 0 0 1-.279 2.598h.15a15.956 15.956 0 0 1 14.601-9.427c8.998 0 12.154 5.11 12.154 14.022v21.237a1.636 1.636 0 0 1-.468 1.336 1.63 1.63 0 0 1-1.336.468h-1.352a1.585 1.585 0 0 1-1.678-1.091 1.58 1.58 0 0 1-.062-.713V63.818c0-5.69-.923-10.737-7.902-10.737-7.708 0-13.742 6.335-13.742 14.774v15.89a1.58 1.58 0 0 1-.43 1.326 1.584 1.584 0 0 1-1.31.478h-1.352a1.634 1.634 0 0 1-1.804-1.804zm57.74 12.24h2.148v-1.16c0-6.979-3.823-9.362-8.933-9.362a17.172 17.172 0 0 0-8.782 2.534 1.704 1.704 0 0 1-1.341.241 1.695 1.695 0 0 1-1.086-.821l-.451-.73a1.634 1.634 0 0 1 .516-2.448 22.198 22.198 0 0 1 11.509-3.157c8.589 0 13.463 4.81 13.463 13.893v21.473a1.594 1.594 0 0 1-.429 1.327 1.592 1.592 0 0 1-1.31.477h-1.138a1.61 1.61 0 0 1-1.804-1.804v-2.984a15.38 15.38 0 0 1 .215-2.728h-.193a13.423 13.423 0 0 1-12.24 8.375c-6.119 0-12.239-3.586-12.239-10.565 0-11.917 15.117-12.562 22.095-12.562M257.03 82.22c6.979 0 11.08-7.193 11.08-13.528v-1.718h-2.018c-5.691 0-17.179.215-17.179 8.332.043 3.479 2.728 6.914 8.117 6.914m22.955-31.071a1.622 1.622 0 0 1 .468-1.336 1.63 1.63 0 0 1 1.335-.468h1.289a1.61 1.61 0 0 1 1.718 1.804v4.166a12.335 12.335 0 0 1-.28 2.598h.151a15.35 15.35 0 0 1 13.313-9.427c6.678 0 10.135 3.092 11.144 9.062h.086a15.376 15.376 0 0 1 13.313-9.062c8.783 0 12.004 5.11 12.004 14.022v21.237a1.625 1.625 0 0 1-.461 1.327 1.63 1.63 0 0 1-1.321.477h-1.31a1.634 1.634 0 0 1-1.804-1.804V63.732c0-5.884-1.203-10.736-7.752-10.736-7.279 0-12.175 7.622-12.175 15.03v15.676a1.573 1.573 0 0 1-.413 1.326 1.562 1.562 0 0 1-1.305.478h-1.374a1.631 1.631 0 0 1-1.804-1.804v-19.97c0-5.454-.794-10.736-7.623-10.736-7.343 0-12.368 7.773-12.368 15.03v15.676a1.594 1.594 0 0 1-.429 1.326 1.592 1.592 0 0 1-1.31.478h-1.353a1.631 1.631 0 0 1-1.804-1.804zm77.066-2.663c9.641 0 15.031 6.979 15.031 17.179a1.808 1.808 0 0 1-1.173 1.691 1.805 1.805 0 0 1-.717.112h-25.96c.214 9.212 6.549 14.473 14.043 14.473a15.396 15.396 0 0 0 9.491-3.328 1.503 1.503 0 0 1 2.383.43l.58.88a1.67 1.67 0 0 1-.025 1.904c-.131.184-.298.34-.49.458a20.42 20.42 0 0 1-12.089 4.23 18.268 18.268 0 0 1-13.576-5.401 18.295 18.295 0 0 1-4.06-6.262 18.289 18.289 0 0 1-1.218-7.362c0-11.875 7.988-19.004 17.78-19.004m10.135 15.396c-.301-7.623-4.896-11.38-10.307-11.38a12.497 12.497 0 0 0-12.454 11.38zm28.28-15.396a18.985 18.985 0 0 1 12.025 4.102c.2.127.369.299.493.502a1.557 1.557 0 0 1 .12 1.365 1.55 1.55 0 0 1-.399.58l-.494.795c-.644 1.01-1.438 1.01-2.447.365a15.034 15.034 0 0 0-9.148-3.328 13.956 13.956 0 0 0-14.108 14.623 13.97 13.97 0 0 0 3.952 10.325 13.96 13.96 0 0 0 10.221 4.212 15.782 15.782 0 0 0 10.156-3.822 1.437 1.437 0 0 1 1.957-.141c.188.151.335.348.427.57l.494.73a1.72 1.72 0 0 1-.43 2.427 20.012 20.012 0 0 1-12.884 4.617 18.316 18.316 0 0 1-18.982-18.918 18.463 18.463 0 0 1 5.409-13.626 18.444 18.444 0 0 1 13.638-5.378m18.209-11.724a1.572 1.572 0 0 1 .413-1.327 1.562 1.562 0 0 1 1.305-.477h1.374a1.631 1.631 0 0 1 1.804 1.804V54.82c.001.987-.093 1.972-.28 2.942h.129a15.958 15.958 0 0 1 14.473-9.277c8.997 0 12.154 5.11 12.154 14.022v21.237c0 1.16-.559 1.804-1.718 1.804h-1.374a1.634 1.634 0 0 1-1.804-1.804V63.818c0-5.69-.859-10.737-7.902-10.737-7.623 0-13.678 6.27-13.678 15.031v15.676a1.637 1.637 0 0 1-1.083 1.722 1.636 1.636 0 0 1-.721.082h-1.374a1.565 1.565 0 0 1-1.667-1.093 1.572 1.572 0 0 1-.051-.711zm53.897 11.724c9.641 0 15.031 6.979 15.031 17.179a1.817 1.817 0 0 1-1.158 1.685 1.806 1.806 0 0 1-.71.118h-25.961c.215 9.212 6.549 14.473 14.022 14.473a15.46 15.46 0 0 0 9.512-3.328 1.479 1.479 0 0 1 1.925-.109c.186.143.336.327.437.538l.58.88a1.675 1.675 0 0 1-.494 2.363 20.549 20.549 0 0 1-12.089 4.23 18.293 18.293 0 0 1-18.939-18.918c0-11.982 8.052-19.11 17.844-19.11m10.156 15.396c-.279-7.623-4.895-11.38-10.307-11.38a12.456 12.456 0 0 0-12.432 11.38zm29.289-.494h2.148v-1.16c0-6.979-3.823-9.362-8.933-9.362-3.098.023-6.129.9-8.761 2.534a1.719 1.719 0 0 1-2.448-.58l-.429-.73a1.624 1.624 0 0 1-.323-1.34 1.631 1.631 0 0 1 .816-1.108 22.205 22.205 0 0 1 11.51-3.157c8.589 0 13.463 4.81 13.463 13.893v21.473a1.594 1.594 0 0 1-.429 1.327 1.592 1.592 0 0 1-1.31.477h-1.267a1.61 1.61 0 0 1-1.803-1.804v-2.984a15.38 15.38 0 0 1 .214-2.728h-.15a13.423 13.423 0 0 1-12.154 8.375c-6.119 0-12.239-3.586-12.239-10.565 0-11.917 15.117-12.562 22.095-12.562M498.02 82.22c6.979 0 11.08-7.193 11.08-13.528v-1.718h-2.018c-5.691 0-17.179.215-17.179 8.332.043 3.479 2.706 6.914 8.117 6.914m23.019-31.071a1.58 1.58 0 0 1 .43-1.327 1.58 1.58 0 0 1 1.309-.477h1.16A1.544 1.544 0 0 1 525.677 51v2.598c.007.82-.065 1.64-.214 2.448h.128a13.49 13.49 0 0 1 12.669-7.559c9.728 0 15.762 7.773 15.762 19.004 0 11.23-6.85 19.025-16.277 19.025a13.166 13.166 0 0 1-11.96-7.344h-.129c.193 1.048.287 2.112.279 3.178v15.89a1.636 1.636 0 0 1-1.082 1.722 1.64 1.64 0 0 1-.722.082h-1.353a1.597 1.597 0 0 1-1.309-.477 1.58 1.58 0 0 1-.43-1.327zm16.191 30.878c6.442 0 11.745-5.325 11.745-14.537 0-8.869-4.767-14.537-11.445-14.537-6.055 0-11.745 4.294-11.745 14.601 0 7.258 4.037 14.473 11.445 14.473"/></g><defs><linearGradient id="b" x1="126.668" x2="169.658" y1="93.3" y2="1.117" gradientUnits="userSpaceOnUse"><stop stop-color="#D4202C"/><stop offset=".1" stop-color="#DC3D29" stop-opacity=".79"/><stop offset=".2" stop-color="#E45926" stop-opacity=".58"/><stop offset=".32" stop-color="#EA7123" stop-opacity=".4"/><stop offset=".43" stop-color="#F08521" stop-opacity=".25"/><stop offset=".55" stop-color="#F4941F" stop-opacity=".14"/><stop offset=".68" stop-color="#F79F1E" stop-opacity=".06"/><stop offset=".82" stop-color="#F8A51D" stop-opacity=".02"/><stop offset="1" stop-color="#F9A71D" stop-opacity="0"/></linearGradient><linearGradient id="c" x1="53.725" x2="10.736" y1="6.721" y2="98.905" gradientUnits="userSpaceOnUse"><stop stop-color="#D4202C"/><stop offset=".1" stop-color="#DC3D29" stop-opacity=".79"/><stop offset=".2" stop-color="#E45926" stop-opacity=".58"/><stop offset=".32" stop-color="#EA7123" stop-opacity=".4"/><stop offset=".43" stop-color="#F08521" stop-opacity=".25"/><stop offset=".55" stop-color="#F4941F" stop-opacity=".14"/><stop offset=".68" stop-color="#F79F1E" stop-opacity=".06"/><stop offset=".82" stop-color="#F8A51D" stop-opacity=".02"/><stop offset="1" stop-color="#F9A71D" stop-opacity="0"/></linearGradient><clipPath id="a"><path fill="#fff" d="M0 0h554v100H0z"/></clipPath></defs></svg>