<svg xmlns="http://www.w3.org/2000/svg" viewBox="0 0 1231.112 276.975"><defs><linearGradient id="a" x1="18.487" x2="222.187" y1="207.735" y2="90.128" gradientUnits="userSpaceOnUse"><stop offset="0" stop-color="#234555"/><stop offset=".244" stop-color="#2e6078"/><stop offset=".472" stop-color="#106b87"/><stop offset=".768" stop-color="#3ab6ba"/></linearGradient><linearGradient id="b" x1="182.142" x2="235.913" y1="32.988" y2="32.988" gradientUnits="userSpaceOnUse"><stop offset="0" stop-color="#6cc3af"/><stop offset="1" stop-color="#69c7b5"/></linearGradient><linearGradient id="c" x1="237.643" x2="253.872" y1="65.931" y2="65.931" gradientUnits="userSpaceOnUse"><stop offset="0" stop-color="#2ea1aa"/><stop offset="1" stop-color="#2ca1b0"/></linearGradient></defs><path d="M138.488 276.975c-36.992 0-71.77-14.406-97.926-40.562C14.405 210.256 0 175.479 0 138.488s14.405-71.769 40.562-97.926S101.496 0 138.488 0c10.956 0 21.834 1.281 32.397 3.813 2.252.54 3.6 2.852 2.992 5.087l-3.524 12.934c-.586 2.151-2.773 3.43-4.943 2.919a117.4 117.4 0 0 0-26.922-3.114c-31.212 0-60.555 12.154-82.625 34.224s-34.224 51.413-34.224 82.624 12.154 60.555 34.224 82.625 51.413 34.224 82.625 34.224c25.489 0 50.413-8.41 70.633-23.758 1.778-1.35 4.3-1.074 5.71.656l8.47 10.387c1.466 1.797 1.17 4.46-.67 5.868-24.046 18.399-53.758 28.486-84.143 28.486" style="fill:url(#a)"/><path d="M219.326 54.116c-10.07-9.638-21.931-17.507-34.673-23.005-2.024-.873-3.038-3.238-2.236-5.293l4.872-12.488c.85-2.179 3.335-3.2 5.485-2.28 15.412 6.586 29.745 16.093 41.861 27.768 1.684 1.622 1.713 4.307.038 5.939l-9.6 9.356c-1.58 1.54-4.153 1.528-5.747.003" style="fill:url(#b)"/><circle cx="245.758" cy="65.931" r="8.114" style="fill:url(#c)"/><path d="M151.025 62.104q15.198.001 27.5 4.3 12.298 4.304 21.1 12.2c5.866 5.27 10.4 11.7 13.6 19.3s4.8 16.135 4.8 25.6q0 18.001-6.1 34-6.102 16.002-16.9 27.8-10.801 11.802-25.6 18.7-14.804 6.9-32.4 6.9-15.6 0-28.2-4.2-12.602-4.199-21.5-12.2-8.901-7.998-13.7-19.4c-3.2-7.6-4.8-16.13-4.8-25.6 0-12 2.1-23.33 6.3-34q6.3-15.996 17.3-27.8 10.998-11.799 26-18.7 14.999-6.9 32.6-6.9m-14 127.2q13.397 0 23.7-5.4 10.299-5.4 17.4-14.4 7.096-9 10.8-20.4 3.699-11.4 3.7-23.4c0-5.73-.934-11.2-2.8-16.4q-2.802-7.8-8.2-13.5c-5.398-5.7-8.069-6.83-13.4-9.1q-8.002-3.399-18.4-3.4-12.802 0-23.1 5.4-10.302 5.4-17.5 14.4c-7.198 9-8.5 12.8-11.1 20.4q-3.9 11.4-3.9 23.4-.002 8.805 2.8 16.5 2.799 7.701 8.2 13.4c5.401 5.7 8.065 6.835 13.4 9.1q7.998 3.402 18.4 3.4m107.099-67.2q.898-6 1.3-10.8h22c-.135 1.47-.4 3.8-.8 7l-1 8h.4c2.931-4.53 6.765-8.6 11.5-12.2q7.097-5.4 18.1-5.4c8 0 14.431 1.77 19.3 5.3q7.296 5.302 9.5 13.5 6.198-8.798 14.6-13.8c5.6-3.33 12.065-5 19.4-5q8.4 0 14.4 2.4 5.998 2.401 10 6.4 3.997 4.004 5.9 9.5c1.266 3.67 1.9 7.5 1.9 11.5 0 3.335-.27 6.335-.8 9l-10.6 59.8h-23.4l9.2-52.8q.399-2.4.7-4.8t.3-4.8c0-2.13-.269-4.2-.8-6.2-.535-2-1.4-3.73-2.6-5.2q-1.801-2.197-4.9-3.6c-2.069-.93-4.635-1.4-7.7-1.4q-5.603 0-10 2.4a27.7 27.7 0 0 0-7.7 6.2 32 32 0 0 0-5.3 8.5q-2.003 4.702-2.8 9.3l-9.2 52.4h-23.6l10.2-58q.6-3 .6-5.4 0-6.796-3.6-11.1-3.6-4.299-11.2-4.3c-3.6 0-6.835.77-9.7 2.3a26.9 26.9 0 0 0-7.5 5.9q-3.201 3.602-5.3 8.3-2.102 4.701-2.9 9.5l-9.4 52.8h-23.4l13.2-75.4c.53-2.53 1.1-5.8 1.7-9.8m163.899 85.201 16.8-96h23.6l-17 96zm48.2-129q-.002 5.802-4.1 10.2-4.1 4.4-10.1 4.4-5.803 0-9.9-3.6-4.1-3.6-4.1-10.2 0-6.399 4.4-10.5 4.397-4.099 10.2-4.1 5.8 0 9.7 3.7 3.9 3.702 3.9 10.1m83.6 60.2q-2.6-4.398-8-7.5-5.401-3.1-11.8-3.1-7.4 0-13.7 3.009t-10.8 8.227q-4.502 5.219-7.1 12.039-2.6 6.824-2.6 14.243-.001 5.017 1.4 9.53c.931 3.014 2.4 5.688 4.4 8.03s4.531 4.212 7.6 5.615c3.065 1.407 6.731 2.106 11 2.106q8.998.002 14.5-3.1 5.498-3.096 10.1-7.7l13.4 13.572q-7.602 7.523-17.2 11.975-9.6 4.453-22.2 4.453-10.402 0-18.9-3-8.503-2.998-14.6-8.5-6.102-5.497-9.4-13.1-3.3-7.596-3.3-17c0-7.73 1.4-15.2 4.2-22.4q4.198-10.799 11.8-19.1 7.598-8.295 18.5-13.2 10.899-4.899 24.1-4.9 10.798 0 20.5 3.9 9.698 3.9 14.9 12.3zm29.197 41.199q3 5.803 8.9 8.9 5.9 3.102 13.1 3.1 8.199 0 13.101-3.2 4.9-3.198 4.9-8.8 0-5.197-3.9-7.7-3.902-2.496-12.5-5.3-6.8-2.198-11.9-4.5-5.1-2.297-8.5-5.4-3.404-3.097-5.1-7.1-1.7-3.999-1.7-9.4 0-6.996 3.2-12.8 3.197-5.799 8.8-10 5.596-4.199 13.2-6.5c5.065-1.53 10.6-2.3 16.6-2.3 7.466 0 14.231 1.37 20.3 4.1q9.099 4.101 14.3 12.5l-18.2 10.8q-2.601-3.999-6.8-6.7-4.2-2.7-11.4-2.7-3 0-6.1.6-3.102.601-5.5 1.9-2.4 1.304-3.9 3.5-1.5 2.205-1.5 5.4 0 4.602 3.9 6.8 3.898 2.203 11.5 4.4c8.93 2.535 15.866 5.97 20.8 10.3q7.398 6.5 7.4 18.5-.001 8.002-3.4 14.1c-2.268 4.07-5.3 7.5-9.1 10.3q-5.7 4.2-13.2 6.3t-15.9 2.1q-15.602 0-25.1-5.5-9.5-5.497-14.5-13.7z" style="fill:#354c5b"/><path d="M776.419 81.505q-3.802-6.999-13.6-11.4-9.801-4.399-21.801-4.4-6.802.001-14.5 2-7.701 2.002-14.1 6.4-6.401 4.401-10.7 11.1-4.301 6.701-4.3 16.3 0 7.002 2.3 11.7a23.25 23.25 0 0 0 6.4 8q4.099 3.3 9.8 5.7c5.701 2.4 8.032 3.2 12.7 4.8q8.198 3.001 15.2 6.2 6.999 3.201 12.001 7.5 4.996 4.3 7.8 10.1 2.799 5.803 2.8 13.8 0 9.6-3.6 17.399t-10.2 13.2c-4.4 3.6-9.67 6.4-15.8 8.4q-9.203 3-20.4 3-6.405-.001-12.6-1.4-6.204-1.401-11.5-4-5.301-2.597-9.5-6.1-4.203-3.495-6.801-7.5l3.4-2.6q1.998 3.404 5.6 6.6 3.598 3.2 8.5 5.6 4.899 2.4 11 3.9 6.099 1.5 13.1 1.5c6.4 0 12.3-.83 17.7-2.5q8.1-2.497 14.1-7.4 6-4.897 9.3-11.9 3.3-6.999 3.3-16-.001-7.6-2.899-13-2.904-5.4-7.9-9.3-5.002-3.898-11.701-6.7-6.702-2.797-14.5-5.4-6.6-2.199-12.4-4.9c-3.869-1.8-7.268-3.93-10.2-6.4q-4.401-3.699-6.9-9.1c-1.668-3.6-2.5-7.93-2.5-13q0-10.2 4.4-17.7 4.399-7.499 11.3-12.5c4.6-3.33 9.8-5.8 15.6-7.4q8.7-2.4 17.1-2.4c9.6 0 17.632 1.67 24.1 5q9.698 5.002 14.301 12zm46.898 127.599q-2.7.6-5.699.6-8.603 0-13-4.11-4.401-4.105-4.4-11.324 0-1.603.3-4.41.298-2.803.7-4.41l11.8-66.545h-21.2l.6-3.6h21l4.8-27h4.4l-4.8 27h25.2l-.6 3.6h-25.2l-11.8 67.309q-.404 1.607-.6 4.119-.201 2.514-.2 3.715 0 6.633 3.8 9.343 3.796 2.714 10.2 2.713 1.8.001 4.7-.443c1.93-.294 3.7-.813 5.3-1.557v3.4q-2.6 1-5.3 1.6Zm61.7 1q-7.403 0-12.9-2.5-5.503-2.498-9.1-6.6c-2.4-2.73-4.2-5.9-5.4-9.5q-1.8-5.398-1.8-11.2 0-4.398 1.2-10.4l9.6-54.6h4.4l-9.801 54.8a69 69 0 0 0-.7 5c-.2 1.87-.3 3.534-.3 5 0 3.2.465 6.37 1.4 9.5q1.399 4.703 4.4 8.4 3 3.705 7.8 6 4.798 2.301 11.8 2.3c5.065 0 9.831-1.03 14.3-3.1q6.7-3.098 12.1-8.9 5.4-5.798 9.3-14.1 3.9-8.297 5.7-18.9l8.2-46h4.4l-12.2 68.8a209 209 0 0 0-.9 5.4q-.502 3.2-.9 6.5-.402 3.3-.8 6.3c-.268 2-.4 3.67-.4 5h-4.4c.131-1.33.332-3 .6-5q.398-3 .8-6.5c.265-2.33.6-4.6 1-6.8q.598-3.299 1-5.9h-.4q-6.2 13.404-16.1 20.2-9.9 6.799-21.9 6.8Zm121.798 0q-10.402 0-18.1-3.1-7.701-3.097-12.9-8.6-5.203-5.499-7.8-13c-1.734-5-2.6-10.43-2.6-16.3q-.002-11.2 3.7-21.4 3.699-10.2 10.5-18 6.796-7.799 16.5-12.5c6.466-3.13 13.7-4.7 21.7-4.7q14.798.001 24.9 7.9c6.731 5.27 11.1 12.1 13.1 20.5h.6l14.6-84.8h4.4l-26.6 151.2h-4.4l4.6-23.6h-.6a51.4 51.4 0 0 1-6.9 10.4q-4.102 4.8-9.4 8.4c-3.534 2.4-7.435 4.27-11.7 5.6q-6.402 1.998-13.6 2Zm.4-3.8q9.799.001 18.4-4.51a47.75 47.75 0 0 0 14.8-12.024q6.199-7.518 9.8-17.14a56.2 56.2 0 0 0 3.6-19.844q0-7.614-2.5-14.332-2.503-6.712-7.2-11.625-4.702-4.912-11.4-7.818-6.701-2.907-14.9-2.907c-7.2 0-13.768 1.473-19.7 4.41q-8.901 4.41-15.2 11.728-6.3 7.317-9.7 16.837-3.402 9.523-3.4 19.741 0 7.819 2.3 14.634 2.296 6.818 6.9 11.929 4.599 5.11 11.7 8.015 7.096 2.907 16.5 2.907Zm82.398 1.001 16.2-92h4.4l-16.2 92zm23.8-126.6q-1.8 0-3-1.1-1.2-1.099-1.2-3.5 0-2.199 1.4-3.9 1.396-1.699 3.6-1.7 1.8.001 3 1.1 1.2 1.101 1.2 3.3 0 2.401-1.5 4.1-1.502 1.7-3.5 1.7Zm20.599 88.199q-.002-10.998 3.7-21.2 3.7-10.2 10.6-18 6.9-7.799 16.8-12.5c6.6-3.13 13.966-4.7 22.1-4.7 7.065 0 13.231 1.07 18.5 3.2q7.898 3.204 13.2 8.8 5.298 5.601 8 13.1c2.702 7.5 2.7 10.37 2.7 16.1q0 11.202-3.7 21.4-3.702 10.2-10.6 18-6.901 7.8-16.7 12.4-9.802 4.6-22 4.6-10.603-.001-18.6-3.2-8.002-3.196-13.3-8.7-5.3-5.499-8-13c-2.7-7.501-2.7-10.43-2.7-16.3Zm91.2-15.034c0-5.088-.769-9.906-2.3-14.463q-2.3-6.83-7.1-12.053-4.8-5.22-12-8.234-7.201-3.016-17-3.016-11.202 0-20.1 4.422-8.901 4.422-15.2 11.65-6.3 7.232-9.7 16.775c-2.27 6.362-3.4 12.956-3.4 19.788q0 7.632 2.3 14.563 2.298 6.932 7 12.052 4.699 5.124 11.9 8.138 7.2 3.013 17 3.013 10.998.001 20-4.32 8.998-4.318 15.4-11.649 6.396-7.332 9.8-16.875 3.4-9.544 3.4-19.791Z" style="fill:#354c5b;stroke:#354c5b;stroke-miterlimit:10;stroke-width:3px"/></svg>